<svg width="38" height="32" viewBox="0 0 38 32" fill="none" xmlns="http://www.w3.org/2000/svg">
<path d="M36.6 24.1668L23.8166 2.96681C23.2997 2.15817 22.5875 1.49268 21.7458 1.0317C20.904 0.570728 19.9597 0.329102 19 0.329102C18.0402 0.329102 17.0959 0.570728 16.2542 1.0317C15.4124 1.49268 14.7002 2.15817 14.1833 2.96681L1.39996 24.1668C0.948386 24.9196 0.702945 25.7779 0.688317 26.6556C0.673688 27.5333 0.890388 28.3994 1.31663 29.1668C1.80943 30.0306 2.52273 30.748 3.38363 31.2458C4.24454 31.7436 5.22217 32.0039 6.21663 32.0001H31.7833C32.7712 32.0107 33.7444 31.7604 34.6048 31.2747C35.4651 30.7889 36.182 30.0848 36.6833 29.2335C37.1221 28.4581 37.3457 27.5796 37.331 26.6888C37.3164 25.798 37.064 24.9273 36.6 24.1668ZM33.7666 27.5835C33.5663 27.9278 33.2756 28.2108 32.926 28.4017C32.5764 28.5927 32.1813 28.6843 31.7833 28.6668H6.21663C5.81867 28.6843 5.42349 28.5927 5.07389 28.4017C4.7243 28.2108 4.43361 27.9278 4.2333 27.5835C4.08702 27.3301 4.01001 27.0427 4.01001 26.7501C4.01001 26.4576 4.08702 26.1702 4.2333 25.9168L17.0333 4.70014C17.2633 4.39632 17.5606 4.14991 17.9018 3.98026C18.243 3.81061 18.6189 3.72232 19 3.72232C19.381 3.72232 19.7569 3.81061 20.0981 3.98026C20.4394 4.14991 20.7366 4.39632 20.9666 4.70014L33.75 25.9001C33.9019 26.154 33.9835 26.4437 33.9864 26.7395C33.9894 27.0354 33.9135 27.3267 33.7666 27.5835Z" fill="#FF1212"/>
<path d="M19 25.3333C19.9205 25.3333 20.6666 24.5871 20.6666 23.6667C20.6666 22.7462 19.9205 22 19 22C18.0795 22 17.3333 22.7462 17.3333 23.6667C17.3333 24.5871 18.0795 25.3333 19 25.3333Z" fill="#FF1212"/>
<path d="M19 10.334C18.558 10.334 18.134 10.5096 17.8215 10.8221C17.5089 11.1347 17.3333 11.5586 17.3333 12.0007V18.6673C17.3333 19.1093 17.5089 19.5333 17.8215 19.8458C18.134 20.1584 18.558 20.334 19 20.334C19.442 20.334 19.8659 20.1584 20.1785 19.8458C20.4911 19.5333 20.6666 19.1093 20.6666 18.6673V12.0007C20.6666 11.5586 20.4911 11.1347 20.1785 10.8221C19.8659 10.5096 19.442 10.334 19 10.334Z" fill="#FF1212"/>
</svg>
