<svg width="18" height="23" viewBox="0 0 18 23" fill="none" xmlns="http://www.w3.org/2000/svg">
<path d="M14.8338 0.243164L12.4384 1.6129V7.67755L11.7002 8.94358L10.3204 6.57496H7.55251H5.45202V1.61456L3.05659 0.243164L0.660315 1.61456V8.94275L0.656982 8.94773L0.660315 8.95354V16.2734L3.05659 17.6432L5.45202 16.2734V10.1474L6.15191 8.94773L6.16857 8.92035L7.55251 11.3197H10.3112L10.3104 11.3213H12.4384V16.2718L14.8338 17.6432L17.2284 16.2718V8.9386V1.6129L14.8338 0.243164Z" fill="white"/>
<path d="M2.83423 19.2285V22.6571H2.24784V21.1877H0.614958V22.6571H0.0285645V19.2285H0.614958V20.644H2.24784V19.2285H2.83423Z" fill="white"/>
<path d="M3.68031 19.2285H4.2667V22.6571H3.68031V19.2285Z" fill="white"/>
<path d="M6.41983 19.2285C6.69348 19.2285 6.93104 19.2775 7.13252 19.3755C7.33701 19.4734 7.49338 19.6138 7.60163 19.7967C7.70989 19.9795 7.76402 20.1967 7.76402 20.4481C7.76402 20.6963 7.70989 20.9134 7.60163 21.0995C7.49338 21.2824 7.33701 21.4228 7.13252 21.5208C6.93104 21.6187 6.69348 21.6677 6.41983 21.6677H5.70713V22.6571H5.12074V19.2285H6.41983ZM6.39276 21.1289C6.64837 21.1289 6.84233 21.0701 6.97464 20.9526C7.10696 20.835 7.17312 20.6669 7.17312 20.4481C7.17312 20.2293 7.10696 20.0612 6.97464 19.9436C6.84233 19.8261 6.64837 19.7673 6.39276 19.7673H5.70713V21.1289H6.39276Z" fill="white"/>
<path d="M10.5869 20.8742C10.7613 20.9363 10.8997 21.0408 11.0019 21.1877C11.1041 21.3314 11.1553 21.511 11.1553 21.7265C11.1553 22.0236 11.05 22.2538 10.8395 22.4171C10.629 22.5771 10.3223 22.6571 9.91933 22.6571H8.3496V19.2285H9.82912C10.202 19.2285 10.4892 19.3085 10.6907 19.4685C10.8921 19.6253 10.9929 19.8424 10.9929 20.1199C10.9929 20.2897 10.9568 20.4399 10.8846 20.5706C10.8125 20.7012 10.7132 20.8024 10.5869 20.8742ZM8.936 19.7281V20.6734H9.76597C9.97045 20.6734 10.1268 20.6342 10.2351 20.5559C10.3463 20.4742 10.402 20.3567 10.402 20.2032C10.402 20.0465 10.3463 19.9289 10.2351 19.8506C10.1268 19.7689 9.97045 19.7281 9.76597 19.7281H8.936ZM9.88325 22.1575C10.3373 22.1575 10.5644 21.9926 10.5644 21.6628C10.5644 21.333 10.3373 21.1681 9.88325 21.1681H8.936V22.1575H9.88325Z" fill="white"/>
<path d="M13.829 21.8636H12.2502L11.939 22.6571H11.3345L12.7554 19.2285H13.3328L14.7582 22.6571H14.1447L13.829 21.8636ZM13.635 21.364L13.0396 19.8652L12.4487 21.364H13.635Z" fill="white"/>
<path d="M17.2256 22.6571L16.5806 21.653C16.5535 21.6563 16.5129 21.6579 16.4588 21.6579H15.7461V22.6571H15.1597V19.2285H16.4588C16.7325 19.2285 16.97 19.2775 17.1715 19.3755C17.376 19.4734 17.5324 19.6138 17.6406 19.7967C17.7489 19.9795 17.803 20.1967 17.803 20.4481C17.803 20.7061 17.7444 20.9281 17.6271 21.1142C17.5128 21.3004 17.3474 21.4391 17.1309 21.5306L17.8571 22.6571H17.2256ZM17.2121 20.4481C17.2121 20.2293 17.1459 20.0612 17.0136 19.9436C16.8813 19.8261 16.6874 19.7673 16.4317 19.7673H15.7461V21.1338H16.4317C16.6874 21.1338 16.8813 21.075 17.0136 20.9575C17.1459 20.8367 17.2121 20.6669 17.2121 20.4481Z" fill="white"/>
</svg>

