<svg width="30" height="40" viewBox="0 0 64 64" fill="none" xmlns="http://www.w3.org/2000/svg">
<g clip-path="url(#clip0)">
<path d="M39.8426 50.3242C39.0648 51.4695 38.287 52.5474 37.5741 53.6253C36.2778 55.4442 34.2037 56.5895 32 56.5895C29.7963 56.5895 27.7222 55.5116 26.4259 53.6253C25.713 52.5474 24.9352 51.4695 24.1574 50.3242C18.8426 51.5368 15.2778 53.9621 15.2778 56.7242C15.2778 60.7663 22.7315 64 32 64C41.2037 64 48.7222 60.7663 48.7222 56.7242C48.7222 53.9621 45.0926 51.5368 39.8426 50.3242Z" fill="#007FFF"/>
<path d="M34.9167 51.9084C40.4722 44.4444 52 27.7523 52 19.542C52 8.75318 43.0417 0 32 0C20.9583 0 12 8.75318 12 19.542C12 27.7523 23.5972 44.3766 29.0833 51.9084C30.5417 53.8083 33.4583 53.8083 34.9167 51.9084Z" fill="#007FFF"/>
<path fill-rule="evenodd" clip-rule="evenodd" d="M32 8.79635C25.8097 8.79635 20.7963 13.8098 20.7963 20.0001C20.7963 26.1903 25.8097 31.2038 32 31.2038C38.1903 31.2038 43.2037 26.1903 43.2037 20.0001C43.2037 13.8098 38.1903 8.79635 32 8.79635ZM19.7778 20.0001C19.7778 13.2473 25.2472 7.77783 32 7.77783C38.7528 7.77783 44.2222 13.2473 44.2222 20.0001C44.2222 26.7528 38.7528 32.2223 32 32.2223C25.2472 32.2223 19.7778 26.7528 19.7778 20.0001Z" fill="white"/>
<path fill-rule="evenodd" clip-rule="evenodd" d="M32 11.4445C34.0228 11.4445 35.6667 13.0884 35.6667 15.1112C35.6667 17.14 34.0228 18.7778 32 18.7778C29.9772 18.7778 28.3333 17.14 28.3333 15.1112C28.3333 13.0884 29.9772 11.4445 32 11.4445Z" fill="white"/>
<path fill-rule="evenodd" clip-rule="evenodd" d="M32 28.8C28.9383 28.8 26.2494 27.2356 24.6667 24.8645C24.6972 22.4384 29.5617 21.1 32 21.1C34.4383 21.1 39.2967 22.4384 39.3333 24.8645C37.7505 27.2356 35.0617 28.8 32 28.8Z" fill="white"/>
</g>
<defs>
<clipPath id="clip0">
<rect width="64" height="64" fill="white"/>
</clipPath>
</defs>
</svg>
