<svg width="20" height="32" viewBox="0 0 20 32" fill="none" xmlns="http://www.w3.org/2000/svg">
<path d="M10 0.0175781C4.476 0.0175781 0 4.47558 0 9.99758C0 19.5456 10 31.9976 10 31.9976C10 31.9976 20 19.5436 20 9.99758C20 4.47758 15.524 0.0175781 10 0.0175781ZM10 15.5196C8.56783 15.5196 7.19432 14.9507 6.18162 13.938C5.16893 12.9253 4.6 11.5517 4.6 10.1196C4.6 8.68741 5.16893 7.3139 6.18162 6.3012C7.19432 5.28851 8.56783 4.71958 10 4.71958C11.4322 4.71958 12.8057 5.28851 13.8184 6.3012C14.8311 7.3139 15.4 8.68741 15.4 10.1196C15.4 11.5517 14.8311 12.9253 13.8184 13.938C12.8057 14.9507 11.4322 15.5196 10 15.5196Z" fill="#02B133"/>
</svg>
