<svg width="24" height="24" viewBox="0 0 24 24" fill="none" xmlns="http://www.w3.org/2000/svg">
<path d="M19.0781 14.1094C18.6902 14.1094 18.375 14.4246 18.375 14.8125C18.375 15.2004 18.6902 15.5156 19.0781 15.5156C19.4661 15.5156 19.7812 15.2004 19.7812 14.8125C19.7812 14.4246 19.4661 14.1094 19.0781 14.1094Z" fill="#757575"/>
<path d="M23.2969 4.26562H7.08961V6.375C7.08961 6.76364 6.77512 7.07812 6.38648 7.07812C5.99784 7.07812 5.68336 6.76364 5.68336 6.375V4.26562H0.703125C0.314484 4.26562 0 4.58011 0 4.96875V9.1875C0 9.57614 0.314484 9.89062 0.703125 9.89062C1.86628 9.89062 2.8125 10.8368 2.8125 12C2.8125 13.1632 1.86628 14.1094 0.703125 14.1094C0.314484 14.1094 0 14.4239 0 14.8125V19.0312C0 19.4199 0.314484 19.7344 0.703125 19.7344H5.625V17.625C5.625 17.2364 5.93948 16.9219 6.32812 16.9219C6.71677 16.9219 7.03125 17.2364 7.03125 17.625V19.7344H23.2969C23.6855 19.7344 24 19.4199 24 19.0312V4.96875C24 4.58011 23.6855 4.26562 23.2969 4.26562ZM7.03125 14.8125C7.03125 15.2011 6.71677 15.5156 6.32812 15.5156C5.93948 15.5156 5.625 15.2011 5.625 14.8125V13.4062C5.625 13.0176 5.93948 12.7031 6.32812 12.7031C6.71677 12.7031 7.03125 13.0176 7.03125 13.4062V14.8125ZM7.03125 10.5938C7.03125 10.9824 6.71677 11.2969 6.32812 11.2969C5.93948 11.2969 5.625 10.9824 5.625 10.5938V9.1875C5.625 8.79886 5.93948 8.48438 6.32812 8.48438C6.71677 8.48438 7.03125 8.79886 7.03125 9.1875V10.5938ZM11.3438 9.1875C11.3438 8.02434 12.29 7.07812 13.4531 7.07812C14.6163 7.07812 15.5625 8.02434 15.5625 9.1875C15.5625 10.3507 14.6163 11.2969 13.4531 11.2969C12.29 11.2969 11.3438 10.3507 11.3438 9.1875ZM13.0631 16.8038C12.7397 16.5881 12.6525 16.1521 12.8681 15.8287L18.4931 7.3912C18.708 7.06781 19.1441 6.98128 19.4682 7.1962C19.7916 7.41183 19.8788 7.84781 19.6632 8.17125L14.0382 16.6088C13.8261 16.9274 13.3917 17.0215 13.0631 16.8038ZM19.0781 16.9219C17.915 16.9219 16.9688 15.9757 16.9688 14.8125C16.9688 13.6493 17.915 12.7031 19.0781 12.7031C20.2413 12.7031 21.1875 13.6493 21.1875 14.8125C21.1875 15.9757 20.2413 16.9219 19.0781 16.9219Z" fill="#757575"/>
<path d="M13.4531 8.48438C13.0652 8.48438 12.75 8.79956 12.75 9.1875C12.75 9.57544 13.0652 9.89062 13.4531 9.89062C13.8411 9.89062 14.1562 9.57544 14.1562 9.1875C14.1562 8.79956 13.8411 8.48438 13.4531 8.48438Z" fill="#757575"/>
</svg>
