<svg width="28" height="32" viewBox="0 0 28 32" fill="none" xmlns="http://www.w3.org/2000/svg">
<path fill-rule="evenodd" clip-rule="evenodd" d="M6 3H4C2.93913 3 1.92172 3.42143 1.17157 4.17157C0.421427 4.92172 0 5.93913 0 7V28C0 29.0609 0.421427 30.0783 1.17157 30.8284C1.92172 31.5786 2.93913 32 4 32H24C25.0609 32 26.0783 31.5786 26.8284 30.8284C27.5786 30.0783 28 29.0609 28 28V7C28 5.93913 27.5786 4.92172 26.8284 4.17157C26.0783 3.42143 25.0609 3 24 3H22V5H24C24.5304 5 25.0391 5.21071 25.4142 5.58579C25.7893 5.96086 26 6.46957 26 7V28C26 28.5304 25.7893 29.0391 25.4142 29.4142C25.0391 29.7893 24.5304 30 24 30H4C3.46957 30 2.96086 29.7893 2.58579 29.4142C2.21071 29.0391 2 28.5304 2 28V7C2 6.46957 2.21071 5.96086 2.58579 5.58579C2.96086 5.21071 3.46957 5 4 5H6V3Z" fill="#a6a6a6"/>
<path fill-rule="evenodd" clip-rule="evenodd" d="M17 2H11C10.7348 2 10.4804 2.10536 10.2929 2.29289C10.1054 2.48043 10 2.73478 10 3V5C10 5.26522 10.1054 5.51957 10.2929 5.70711C10.4804 5.89464 10.7348 6 11 6H17C17.2652 6 17.5196 5.89464 17.7071 5.70711C17.8946 5.51957 18 5.26522 18 5V3C18 2.73478 17.8946 2.48043 17.7071 2.29289C17.5196 2.10536 17.2652 2 17 2ZM11 0C10.2044 0 9.44129 0.31607 8.87868 0.87868C8.31607 1.44129 8 2.20435 8 3V5C8 5.79565 8.31607 6.55871 8.87868 7.12132C9.44129 7.68393 10.2044 8 11 8H17C17.7956 8 18.5587 7.68393 19.1213 7.12132C19.6839 6.55871 20 5.79565 20 5V3C20 2.20435 19.6839 1.44129 19.1213 0.87868C18.5587 0.31607 17.7956 0 17 0L11 0ZM19.708 14.292C19.8011 14.3849 19.875 14.4952 19.9254 14.6167C19.9758 14.7382 20.0018 14.8685 20.0018 15C20.0018 15.1315 19.9758 15.2618 19.9254 15.3833C19.875 15.5048 19.8011 15.6151 19.708 15.708L13.708 21.708C13.6151 21.8011 13.5048 21.875 13.3833 21.9254C13.2618 21.9758 13.1315 22.0018 13 22.0018C12.8685 22.0018 12.7382 21.9758 12.6167 21.9254C12.4952 21.875 12.3849 21.8011 12.292 21.708L9.292 18.708C9.19902 18.615 9.12527 18.5046 9.07495 18.3832C9.02463 18.2617 8.99874 18.1315 8.99874 18C8.99874 17.8685 9.02463 17.7383 9.07495 17.6168C9.12527 17.4954 9.19902 17.385 9.292 17.292C9.47977 17.1042 9.73445 16.9987 10 16.9987C10.1315 16.9987 10.2617 17.0246 10.3832 17.075C10.5046 17.1253 10.615 17.199 10.708 17.292L13 19.586L18.292 14.292C18.3849 14.1989 18.4952 14.125 18.6167 14.0746C18.7382 14.0242 18.8685 13.9982 19 13.9982C19.1315 13.9982 19.2618 14.0242 19.3833 14.0746C19.5048 14.125 19.6151 14.1989 19.708 14.292Z" fill="#a6a6a6"/>
</svg>
